# xmcd
# Track frame offsets:
# 150
# 13430
# 24179
# 38613
# 57786
# 75168
# 93103
# 110278
# 124679
#
# Disc length: 1901 seconds
# Revision: 0
# Processed by: cddbd v1.5.2PL0 Copyright (c) Steve Scherf et al.
# Submitted via: VisiTrax 2.9.10.228 - For more info visit www.synapsa.com
#
DISCID=58076b09
DTITLE=Various Artist - New Country vol.32 july-august 2006
DYEAR=1900
DGENRE=country
TTITLE0=Floyd Flowers - Since you moved out I moved her in
TTITLE1=Johnny Anthony - Queen of the mall
TTITLE2=John Conlee - Pass it on
TTITLE3=Doug Alan - For a lifetime
TTITLE4=Chris Gray - Not bad for a good ole boy
TTITLE5=Miko Marks - Mama
TTITLE6=Tress Jorden - I turn to country
TTITLE7=Cynda Bennett - Cowboy up
TTITLE8=Jim Arp - Come on home baby
EXTD=
EXTT0=
EXTT1=
EXTT2=
EXTT3=
EXTT4=
EXTT5=
EXTT6=
EXTT7=
EXTT8=
PLAYORDER=
